# xmcd CD database file
# Copyright (C) 1993-1996 Ti Kan
#
# Track frame offsets:
# 150
# 12050
# 22705
# 33050
# 46345
# 56460
# 68977
# 78832
# 90135
# 103670
#
# Disc length: 1543 seconds
# Revision: 0
# Processed by: cddbd v1.4b41PL1 Copyright (c) Steve Scherf et al.
# Submitted via: CDSpectrumPro v3.2.327
#
DISCID=5e06050a
DTITLE=Jerry Lee Lewis - A Taste Of Country
DYEAR=1900
DGENRE=
TTITLE0=I Can't Seem To Say Goodbye
TTITLE1=I Love You So Much It Hurts
TTITLE2=I'm Throwing Rice
TTITLE3=Good Night Irene
TTITLE4=Your Cheatin' Heart
TTITLE5=Crazy Arms
TTITLE6=Night Train To Memphis
TTITLE7=As Long As I Live
TTITLE8=You Win Again
TTITLE9=It Hurt Me So
EXTD=
EXTT0=
EXTT1=
EXTT2=
EXTT3=
EXTT4=
EXTT5=
EXTT6=
EXTT7=
EXTT8=
EXTT9=
PLAYORDER=
